<svg width="32" height="32" viewBox="0 0 32 32" fill="none" xmlns="http://www.w3.org/2000/svg">
<g clip-path="url(#clip0_109_2)">
<path d="M24 0H8C3.58172 0 0 3.58172 0 8V24C0 28.4183 3.58172 32 8 32H24C28.4183 32 32 28.4183 32 24V8C32 3.58172 28.4183 0 24 0Z" fill="black"/>
<path d="M16.0002 5.81812C13.2351 5.81812 12.8881 5.83021 11.8021 5.87963C10.7181 5.92927 9.97829 6.10087 9.33092 6.35266C8.66127 6.61272 8.09323 6.9606 7.5273 7.52675C6.96096 8.09269 6.61309 8.66075 6.35219 9.33021C6.09977 9.97781 5.92796 10.7179 5.87917 11.8014C5.8306 12.8875 5.81787 13.2347 5.81787 15.9999C5.81787 18.7651 5.83017 19.1111 5.87938 20.1972C5.92923 21.2811 6.10083 22.021 6.3524 22.6684C6.61267 23.3381 6.96053 23.9061 7.52667 24.4721C8.09238 25.0384 8.66042 25.3871 9.32964 25.6472C9.97744 25.899 10.7175 26.0706 11.8012 26.1202C12.8872 26.1697 13.234 26.1818 15.999 26.1818C18.7643 26.1818 19.1103 26.1697 20.1963 26.1202C21.2802 26.0706 22.0209 25.899 22.6687 25.6472C23.3381 25.3871 23.9053 25.0384 24.471 24.4721C25.0374 23.9061 25.3852 23.3381 25.6461 22.6686C25.8964 22.021 26.0683 21.2809 26.1192 20.1974C26.168 19.1113 26.1807 18.7651 26.1807 15.9999C26.1807 13.2347 26.168 12.8877 26.1192 11.8016C26.0683 10.7177 25.8964 9.97781 25.6461 9.33042C25.3852 8.66075 25.0374 8.09269 24.471 7.52675C23.9047 6.96039 23.3383 6.61251 22.6681 6.35266C22.019 6.10087 21.2787 5.92927 20.1948 5.87963C19.1088 5.83021 18.763 5.81812 15.997 5.81812H16.0002ZM15.0869 7.65296C15.3579 7.65254 15.6604 7.65296 16.0002 7.65296C18.7187 7.65296 19.0409 7.66272 20.1144 7.71151C21.1071 7.7569 21.6459 7.92278 22.0048 8.06215C22.4799 8.24669 22.8187 8.4673 23.1748 8.82366C23.5312 9.18002 23.7518 9.51942 23.9367 9.99457C24.0761 10.3531 24.2422 10.8918 24.2873 11.8846C24.3361 12.9579 24.3467 13.2803 24.3467 15.9976C24.3467 18.7149 24.3361 19.0373 24.2873 20.1106C24.2419 21.1034 24.0761 21.6421 23.9367 22.0006C23.7522 22.4758 23.5312 22.8141 23.1748 23.1703C22.8184 23.5266 22.4801 23.7472 22.0048 23.9318C21.6463 24.0718 21.1071 24.2372 20.1144 24.2826C19.0411 24.3314 18.7187 24.342 16.0002 24.342C13.2816 24.342 12.9594 24.3314 11.8861 24.2826C10.8934 24.2368 10.3546 24.0709 9.99547 23.9316C9.52033 23.747 9.18095 23.5264 8.8246 23.1701C8.46825 22.8137 8.24765 22.4751 8.06268 21.9998C7.92332 21.6413 7.75724 21.1025 7.71206 20.1098C7.66327 19.0364 7.65351 18.714 7.65351 15.9951C7.65351 13.2761 7.66327 12.9554 7.71206 11.882C7.75745 10.8893 7.92332 10.3505 8.06268 9.9916C8.24722 9.51645 8.46825 9.17705 8.8246 8.82069C9.18095 8.46433 9.52033 8.24372 9.99547 8.05875C10.3544 7.91875 10.8934 7.7533 11.8861 7.70769C12.8253 7.66527 13.1893 7.65254 15.0869 7.65042V7.65296ZM21.435 9.34357C20.7605 9.34357 20.2133 9.89021 20.2133 10.565C20.2133 11.2395 20.7605 11.7868 21.435 11.7868C22.1096 11.7868 22.6568 11.2395 22.6568 10.565C22.6568 9.89042 22.1096 9.34315 21.435 9.34315V9.34357ZM16.0002 10.7711C13.1127 10.7711 10.7716 13.1123 10.7716 15.9999C10.7716 18.8875 13.1127 21.2277 16.0002 21.2277C18.8877 21.2277 21.228 18.8875 21.228 15.9999C21.228 13.1123 18.8877 10.7711 16.0002 10.7711ZM16.0002 12.606C17.8745 12.606 19.3941 14.1254 19.3941 15.9999C19.3941 17.8742 17.8745 19.3939 16.0002 19.3939C14.1258 19.3939 12.6064 17.8742 12.6064 15.9999C12.6064 14.1254 14.1258 12.606 16.0002 12.606Z" fill="white"/>
</g>
<defs>
<clipPath id="clip0_109_2">
<rect width="32" height="32" fill="white"/>
</clipPath>
</defs>
</svg>
