<?xml version="1.0" encoding="UTF-8"?>
<svg width="32px" height="32px" viewBox="0 0 32 32" version="1.1" xmlns="http://www.w3.org/2000/svg" xmlns:xlink="http://www.w3.org/1999/xlink">
    <title>mail</title>
    <g id="Page-1" stroke="none" stroke-width="1" fill="none" fill-rule="evenodd">
        <g id="Contact" transform="translate(-120.000000, -660.000000)">
            <g id="mail" transform="translate(120.000000, 660.000000)">
                <rect id="Rectangle" fill="#000000" x="0" y="0" width="32" height="32" rx="8"></rect>
                <g id="email_black_24dp" transform="translate(4.000000, 4.000000)">
                    <polygon id="Path" points="0 0 24 0 24 24 0 24"></polygon>
                    <path d="M20,4 L4,4 C2.9,4 2.01,4.9 2.01,6 L2,18 C2,19.1 2.9,20 4,20 L20,20 C21.1,20 22,19.1 22,18 L22,6 C22,4.9 21.1,4 20,4 Z M19.6,8.25 L12.53,12.67 C12.21,12.87 11.79,12.87 11.47,12.67 L4.4,8.25 C4.15,8.09 4,7.82 4,7.53 C4,6.86 4.73,6.46 5.3,6.81 L12,11 L18.7,6.81 C19.27,6.46 20,6.86 20,7.53 C20,7.82 19.85,8.09 19.6,8.25 Z" id="Shape" fill="#FFFFFF" fill-rule="nonzero"></path>
                </g>
            </g>
        </g>
    </g>
</svg>