<svg width="2715" height="866" viewBox="0 0 2715 866" fill="none" xmlns="http://www.w3.org/2000/svg">
<g clip-path="url(#clip0_118_324)">
<path d="M369.114 566.444H532.57V609.098H315V254.88H369.114V566.444ZM653.03 254.88H708.627V608.727H653.03V254.88ZM848.731 609.098H893.58V361.331L1176.75 618V254.88H1131.91V507.84L848.731 249.317V609.098ZM1319.82 254.88H1450.66C1589.65 260.815 1645.62 346.495 1645.62 432.175C1645.62 523.047 1571.49 609.098 1455.11 609.098H1319.82V254.88ZM1372.83 568.669H1450.66C1571.86 563.106 1585.95 475.942 1585.95 432.175C1585.95 353.171 1549.25 296.793 1448.07 292.713H1372.83V568.669ZM2246.44 419.564L2401 609.469L2331.69 609.84L2213.08 458.88L2090.03 609.098H2031.47L2186.02 425.869L2044.44 254.51H2113.75L2217.9 387.295L2325.76 254.88H2383.95L2246.44 419.564ZM1940.66 302.728C1928.43 294.568 1897.29 288.633 1883.95 288.633C1842.44 288.633 1809.82 308.291 1806.48 355.026C1804.63 392.117 1819.83 422.531 1850.59 425.869C1850.59 425.869 1799.44 431.804 1805.74 501.535C1809.08 544.189 1836.5 564.218 1872.83 568.298C1895.81 570.895 1928.05 567.556 1948.81 553.462V600.567C1926.94 610.582 1900.26 613.549 1875.79 613.549C1794.99 614.291 1750.14 569.782 1750.14 506.356C1750.14 474.087 1766.08 436.255 1801.29 425.127C1771.27 408.437 1755.33 380.248 1755.33 342.044C1755.33 287.891 1805.37 244.866 1875.05 249.317C1901.37 250.8 1926.94 255.251 1941.03 260.815V302.728H1940.66Z" fill="black"/>
</g>
<defs>
<clipPath id="clip0_118_324">
<rect width="2086" height="369" fill="white" transform="translate(315 249)"/>
</clipPath>
</defs>
</svg>
