<svg width="433" height="157" viewBox="0 0 433 157" fill="none" xmlns="http://www.w3.org/2000/svg">
<g clip-path="url(#clip0_10_38)">
<path d="M7 59.2156V89.8123H27.8854V84.8565H13.4594V76.4531H26.3782V71.4973H13.4594V64.1714H27.2395V59.2156H7ZM66.2112 77.746C66.2112 73.8675 65.9959 72.1438 64.9193 70.6355C63.6274 68.6962 61.4743 67.8344 59.1059 67.8344C56.0915 67.8344 53.723 69.1272 52.2158 71.4973L52.0005 68.2653H45.9717C45.9717 69.5581 46.1871 70.8509 46.1871 71.4973V89.8123H52.4311V77.0996C52.4311 73.8675 54.1536 72.3592 56.5221 72.3592C58.4599 72.3592 59.7518 73.652 59.7518 76.0222V89.8123H66.2112V77.746ZM82.3597 68.4808L90.111 89.8123H97.001L104.752 68.4808H98.7235L93.7713 82.9172L89.0344 68.4808H82.3597ZM120.901 68.4808L129.083 89.8123L126.284 97.7846H132.528L135.112 89.1659L143.078 68.2653H136.834L132.097 83.1327L127.576 68.4808H120.901ZM181.189 59.2156V64.1714H190.232V89.5968H196.906V64.3868H205.95V59.2156H181.189ZM222.959 59.2156V89.5968H229.203V76.4531C229.203 74.083 230.711 72.3592 233.294 72.3592C235.663 72.3592 236.739 73.652 236.739 76.8841V89.8123H242.984V76.8841C242.984 74.083 242.338 71.4973 240.4 69.9891C239.108 68.9117 237.385 68.2653 235.448 68.2653C232.864 68.2653 230.711 69.1272 229.203 71.4973V59.2156H222.959ZM271.62 67.6189C264.73 67.8344 261.285 72.3592 261.285 79.4697C261.285 86.7957 264.946 90.4587 271.62 90.4587C276.572 90.4587 280.663 88.5194 281.094 83.3482H275.496C275.065 85.2874 273.773 86.3647 271.836 86.3647C269.036 86.3647 267.529 84.641 267.529 80.7625H281.74C281.74 80.3316 281.74 80.1161 281.74 79.4697C281.74 77.315 281.309 74.9449 280.663 73.652C278.726 69.5581 275.711 67.6189 271.62 67.6189ZM267.529 76.6686C267.745 73.652 269.252 71.9283 271.62 71.9283C273.989 71.9283 275.281 73.652 275.281 76.6686H267.529ZM312.53 68.2653H311.884C306.932 68.2653 305.855 71.0664 305.424 72.1438L305.209 72.3592L304.994 68.2653H299.18C299.18 69.1272 299.396 70.2045 299.396 71.2819C299.396 72.3592 299.396 73.2211 299.396 73.4366V89.5968H305.64V78.8233C305.64 77.0996 306.07 75.5913 306.932 74.7294C307.793 73.8675 309.515 73.652 310.807 73.652C311.238 73.652 311.453 73.652 312.314 73.652V68.2653H312.53ZM338.367 67.8344C333.846 67.8344 329.54 69.5581 329.54 74.5139H335.568C335.568 73.8675 335.568 73.4366 335.784 73.0056C336.214 72.1438 337.076 71.4973 338.367 71.4973C340.521 71.4973 341.382 72.7902 341.382 75.1603V76.0222H340.305C337.076 76.0222 334.276 76.4531 332.123 77.746C329.97 79.0388 328.463 80.978 328.463 84.2101C328.463 86.5802 329.755 88.5194 331.477 89.5968C332.554 90.2432 334.276 90.4587 335.568 90.4587C338.583 90.4587 340.521 89.1659 342.028 87.0112C342.028 87.6576 342.028 88.0885 342.028 88.5194C342.028 88.9504 342.028 89.3813 342.243 89.8123H347.841C347.411 88.0885 347.411 86.1493 347.411 83.3482V75.5913C347.411 73.0056 346.765 71.0664 345.257 69.9891C343.75 68.4808 341.166 67.8344 338.367 67.8344ZM334.707 83.1327C334.707 80.978 336.645 79.6852 340.521 79.6852H341.597V80.7625C341.597 83.7791 340.305 86.1493 337.721 86.1493C335.999 86.1493 334.707 84.8565 334.707 83.1327ZM379.492 68.0498C376.263 68.0498 374.109 69.3426 373.033 71.4973L372.818 68.4808H366.789V98.0001H373.248V87.4421C374.54 89.1659 376.693 90.2432 379.277 90.2432C385.521 90.2432 388.535 84.641 388.535 78.8233C388.32 72.7902 385.306 68.0498 379.492 68.0498ZM372.818 79.2542C372.818 74.083 375.186 72.1438 377.77 72.1438C381.215 72.1438 382.076 75.8067 382.076 79.0388C382.076 82.2708 380.999 86.1493 377.554 86.1493C372.818 85.9338 372.818 80.5471 372.818 79.2542ZM403.607 68.4808L411.789 89.8123L408.99 97.7846H415.234L417.818 89.1659L425.785 68.2653H419.541L414.804 83.1327L410.067 68.2653H403.607V68.4808Z" fill="black"/>
</g>
<defs>
<clipPath id="clip0_10_38">
<rect width="419" height="39" fill="white" transform="translate(7 59)"/>
</clipPath>
</defs>
</svg>
