<svg width="433" height="157" viewBox="0 0 433 157" fill="none" xmlns="http://www.w3.org/2000/svg">
<g clip-path="url(#clip0_10_38)">
<path d="M125.808 81.2261H112.179C111.931 81.2261 111.931 81.2261 111.683 81.4739C111.436 81.7217 111.436 81.7217 111.436 81.9696V90.8913C111.436 91.1391 111.436 91.1391 111.188 91.3869C110.94 91.6348 110.94 91.6348 110.692 91.6348H88.8865C88.6387 91.6348 88.6387 91.6348 88.3909 91.3869C88.1431 91.1391 88.1431 91.1391 88.1431 90.8913V81.9696C88.1431 81.7217 88.1431 81.7217 87.8953 81.4739C87.6475 81.2261 87.6475 81.2261 87.3997 81.2261H73.7711C73.5233 81.2261 73.5233 81.2261 73.2755 81.4739C73.0277 81.7217 73.0277 81.7217 73.0277 81.9696V106.504C73.0277 106.752 73.0277 106.752 73.2755 107C73.5233 107.248 73.5233 107.248 73.7711 107.248H87.3997C87.6475 107.248 87.6475 107.248 87.8953 107C88.1431 106.752 88.1431 106.752 88.1431 106.504V97.5826C88.1431 97.3348 88.1431 97.3348 88.3909 97.0869C88.6387 96.8391 88.6387 96.8391 88.8865 96.8391H110.692C110.94 96.8391 110.94 96.8391 111.188 97.0869C111.436 97.3348 111.436 97.3348 111.436 97.5826V106.504C111.436 106.752 111.436 106.752 111.683 107C111.931 107.248 111.931 107.248 112.179 107.248H125.808C126.055 107.248 126.055 107.248 126.303 107C126.551 106.752 126.551 106.752 126.551 106.504V81.9696C126.551 81.7217 126.551 81.7217 126.303 81.4739C126.055 81.2261 126.055 81.2261 125.808 81.2261Z" fill="black"/>
<path d="M70.302 81.2261H20.7434C20.4956 81.2261 20.4956 81.2261 20.2478 81.4739C20 81.4739 20 81.7217 20 81.9696V85.9348C20 86.1826 20 86.1826 20.2478 86.4304C20.4956 86.6782 20.4956 86.6782 20.7434 86.6782H37.8411C38.0889 86.6782 38.0889 86.6782 38.3367 86.9261C38.5845 87.1739 38.5845 87.1739 38.5845 87.4217V106.504C38.5845 106.752 38.5845 106.752 38.8323 107H39.0801H51.9653C52.2131 107 52.2131 107 52.4609 106.752C52.7087 106.504 52.7087 106.504 52.7087 106.257V87.1739C52.7087 86.9261 52.7087 86.9261 52.9565 86.6782C53.2043 86.4304 53.2043 86.4304 53.4521 86.4304H70.5498C70.7976 86.4304 70.7976 86.4304 71.0454 86.1826C71.2932 85.9348 71.2932 85.9348 71.2932 85.6869V81.7217C71.2932 81.4739 71.2932 81.4739 71.0454 81.2261C70.7976 81.2261 70.5498 81.2261 70.302 81.2261Z" fill="black"/>
<path d="M174.127 81.2261H131.259C131.011 81.2261 131.011 81.2261 130.764 81.4739C130.516 81.7217 130.516 81.7217 130.516 81.9696V106.504C130.516 106.752 130.516 106.752 130.764 107C131.011 107.248 131.011 107.248 131.259 107.248H174.127C174.375 107.248 174.375 107.248 174.623 107C174.871 106.752 174.871 106.752 174.871 106.504V102.539C174.871 102.291 174.871 102.291 174.623 102.043C174.375 101.796 174.375 101.796 174.127 101.796H145.383C145.136 101.796 145.136 101.796 144.888 101.548C144.64 101.3 144.64 101.3 144.64 101.052V97.5826C144.64 97.3348 144.64 97.3348 144.888 97.0869C145.136 96.8391 145.136 96.8391 145.383 96.8391H170.163C170.41 96.8391 170.41 96.8391 170.658 96.5913C170.906 96.3435 170.906 96.3435 170.906 96.0956V92.1304C170.906 91.8826 170.906 91.8826 170.658 91.6348C170.41 91.3869 170.41 91.3869 170.163 91.3869H145.383C145.136 91.3869 145.136 91.3869 144.888 91.1391C144.64 90.8913 144.64 90.8913 144.64 90.6435V87.1739C144.64 86.9261 144.64 86.9261 144.888 86.6782C145.136 86.4304 145.136 86.4304 145.383 86.4304H174.127C174.375 86.4304 174.375 86.4304 174.623 86.1826C174.871 85.9348 174.871 85.9348 174.871 85.6869V81.7217C174.871 81.4739 174.871 81.4739 174.623 81.2261C174.623 81.2261 174.375 81.2261 174.127 81.2261Z" fill="black"/>
<path d="M226.412 97.8304C226.164 97.5826 226.164 97.5826 225.916 97.5826H222.199C221.951 97.5826 221.951 97.5826 221.704 97.3348C221.704 97.3348 221.456 97.0869 221.456 96.8391C221.456 96.5913 221.456 96.5913 221.704 96.3435C221.704 96.3435 221.951 96.0956 222.199 96.0956C225.916 95.3522 228.642 94.3609 230.376 93.3696C232.111 92.3782 233.102 90.8913 233.102 88.9087C233.102 87.4217 232.359 86.1826 231.12 84.9435C229.881 83.7043 227.651 82.713 225.173 82.2174C222.447 81.4739 219.474 81.2261 215.757 81.2261H179.083C178.835 81.2261 178.835 81.2261 178.588 81.4739C178.34 81.7217 178.34 81.7217 178.34 81.9696V106.504C178.34 106.752 178.34 106.752 178.588 107C178.835 107.248 178.835 107.248 179.083 107.248H192.96C193.207 107.248 193.207 107.248 193.455 107C193.703 106.752 193.703 106.752 193.703 106.504V98.3261C193.703 98.0782 193.703 98.0782 193.951 97.8304C194.199 97.5826 194.199 97.5826 194.446 97.5826H209.314C209.562 97.5826 209.81 97.5826 209.81 97.8304L218.482 106.752C218.73 107 218.73 107 218.978 107H233.598C233.846 107 234.093 107 234.093 106.752C234.341 106.504 234.341 106.504 234.341 106.257C234.341 106.009 234.341 106.009 234.093 105.761L226.412 97.8304ZM214.022 92.1304C211.296 92.6261 208.075 92.8739 203.863 92.8739C203.119 92.8739 200.889 92.8739 196.677 92.8739C195.438 92.8739 194.446 92.8739 194.199 92.8739C193.951 92.8739 193.951 92.8739 193.703 92.6261C193.703 92.3782 193.455 92.1304 193.455 91.8826V87.4217C193.455 87.1739 193.455 87.1739 193.703 86.9261C193.951 86.6782 193.951 86.6782 194.199 86.6782C194.694 86.6782 195.438 86.6782 196.677 86.6782C200.641 86.6782 203.119 86.6782 203.863 86.6782C208.075 86.6782 211.296 86.9261 213.774 87.4217C216.252 87.9174 217.739 88.6609 217.739 89.9C217.987 90.8913 216.748 91.6348 214.022 92.1304Z" fill="black"/>
<path d="M412.752 81.4739C412.504 81.2261 412.504 81.2261 412.257 81.2261H396.893H396.646L379.548 90.6435C379.3 90.6435 379.3 90.6435 379.3 90.6435H379.052L361.955 81.2261C361.707 81.2261 361.707 81.2261 361.707 81.2261H346.344C346.096 81.2261 345.848 81.2261 345.848 81.4739C345.848 81.7217 345.6 81.7217 345.6 81.9696C345.6 82.2174 345.6 82.4652 345.848 82.713L371.619 96.8391C371.866 96.8391 371.866 97.0869 371.866 97.5826V106.504C371.866 106.752 371.866 106.752 372.114 107C372.362 107.248 372.362 107.248 372.61 107.248H385.495C385.743 107.248 385.743 107.248 385.991 107C386.238 106.752 386.238 106.752 386.238 106.504V97.5826C386.238 97.3348 386.238 97.0869 386.486 96.8391L412.504 82.713C412.752 82.4652 412.752 82.4652 412.752 81.9696C413 81.7217 413 81.4739 412.752 81.4739Z" fill="black"/>
<path d="M274.484 81.4739C274.236 81.2261 274.236 81.2261 273.74 81.2261H263.333H252.926C252.678 81.2261 252.43 81.2261 252.43 81.4739L235.58 106.009C235.58 106.009 235.58 106.257 235.58 106.504C235.58 106.752 235.58 106.752 235.828 107C236.076 107.248 236.076 107.248 236.323 107.248H249.456C249.704 107.248 249.952 107.248 250.2 107L252.926 102.043C252.926 101.796 253.173 101.796 253.421 101.796H273.492C273.74 101.796 273.988 101.796 274.236 102.043L277.209 106.504C277.457 106.752 277.457 106.752 277.705 106.752H290.838C291.086 106.752 291.334 106.752 291.334 106.504C291.581 106.257 291.581 106.257 291.581 106.009C291.581 106.009 291.581 105.761 291.334 105.513L274.484 81.4739ZM269.528 96.3435C269.28 96.5913 269.28 96.5913 269.032 96.5913H257.881C257.634 96.5913 257.634 96.5913 257.386 96.3435C257.138 96.0956 257.138 96.0956 257.138 95.8478C257.138 95.6 257.138 95.6 257.138 95.3522L262.59 86.9261C262.837 86.6782 262.837 86.6782 263.333 86.6782C263.581 86.6782 263.828 86.6782 263.828 86.9261L269.28 95.3522C269.28 95.3522 269.28 95.6 269.28 95.8478C269.776 95.8478 269.776 96.0956 269.528 96.3435Z" fill="black"/>
<path d="M339.653 82.2174C336.927 81.4739 333.954 81.2261 330.237 81.2261H294.059C293.811 81.2261 293.811 81.2261 293.564 81.4739C293.316 81.7217 293.316 81.7217 293.316 81.9696V106.504C293.316 106.752 293.316 106.752 293.564 107C293.811 107.248 293.811 107.248 294.059 107.248H307.688C307.936 107.248 307.936 107.248 308.183 107C308.431 106.752 308.431 106.752 308.431 106.504V98.3261C308.431 98.0782 308.431 98.0782 308.679 97.8304C308.927 97.5826 308.927 97.5826 309.175 97.5826H317.6H319.334C320.325 97.5826 321.564 97.5826 323.051 97.5826C324.538 97.5826 325.529 97.5826 326.272 97.5826C329.989 97.5826 333.211 97.3348 336.432 96.8391C339.653 96.3435 342.131 95.3522 344.113 94.3609C346.096 93.1217 347.335 91.6348 347.335 89.9V89.4043C347.335 87.9174 346.591 86.6782 345.352 85.4391C344.113 83.7043 342.131 82.9609 339.653 82.2174ZM328.998 92.1304C326.272 92.6261 323.051 92.8739 318.839 92.8739C318.095 92.8739 315.865 92.8739 311.653 92.8739C310.414 92.8739 309.422 92.8739 309.175 92.8739C308.927 92.8739 308.927 92.8739 308.679 92.6261C308.431 92.3782 308.431 92.3782 308.431 92.1304V87.6696C308.431 87.4217 308.431 87.4217 308.679 87.1739C308.927 87.1739 308.927 86.9261 309.175 86.9261C309.67 86.9261 310.414 86.9261 311.653 86.9261C315.617 86.9261 318.095 86.9261 318.839 86.9261C323.051 86.9261 326.272 87.1739 328.998 87.6696C331.476 88.1652 332.963 88.9087 332.963 90.1478C332.963 90.8913 331.476 91.6348 328.998 92.1304Z" fill="black"/>
<path d="M71.7888 63.3826C69.8064 62.3913 66.8329 61.6478 63.116 61.1522C59.3991 60.6565 54.1955 60.4087 47.7528 60.4087C44.2837 60.4087 41.558 60.1609 39.5757 60.1609C37.5933 59.913 36.3543 59.6652 35.3632 59.4174C34.6198 58.9217 34.372 58.4261 34.372 57.9304C34.372 57.187 34.8676 56.6913 36.1066 56.1957C37.3455 55.7 38.8323 55.4522 41.0624 55.4522C43.2926 55.4522 46.0183 55.2043 49.4874 55.2043C52.4609 55.2043 54.9388 55.4522 56.9212 55.9478C58.6557 56.4435 59.8947 57.187 60.6381 58.1783C60.8859 58.4261 61.1337 58.6739 61.3815 58.6739H74.5145C74.7623 58.6739 75.0101 58.6739 75.0101 58.4261C75.2579 58.1783 75.2579 58.1783 75.2579 57.9304V57.6826C74.7623 55.4522 72.5322 53.7174 68.8153 52.2304C64.6028 50.7435 57.9124 50 48.2484 50C41.0624 50 35.3632 50.2478 31.1507 50.9913C27.186 51.7348 24.2125 52.7261 22.7257 53.9652C20.9912 55.2043 20.2478 56.6913 20.2478 58.6739C20.2478 60.4087 20.9912 61.8957 22.9735 62.887C24.9559 63.8783 27.6816 64.6217 31.6463 65.1174C35.611 65.613 40.8146 65.8609 47.2572 65.8609C51.2219 65.8609 53.9477 65.8609 55.6822 66.1087C57.4168 66.1087 58.6557 66.3565 59.3991 66.8522C60.1425 67.1 60.6381 67.5957 60.6381 68.3391C60.6381 68.8348 60.1425 69.5783 58.9035 70.0739C57.9124 70.5696 56.1778 71.0652 54.1955 71.313C52.2131 71.5609 49.7352 71.8087 46.7617 71.8087C44.0359 71.8087 41.8058 71.5609 40.0712 71.313C38.5845 70.5696 37.3455 70.3217 36.6021 69.5783C35.8588 69.0826 35.1154 68.587 34.6198 67.5957C34.6198 67.3478 34.372 67.1 34.1242 67.1H20.7434C20.4956 67.1 20.2478 67.3478 20.2478 67.3478C20 67.5957 20 67.8435 20 68.0913C20 69.5783 20.9912 71.0652 22.4779 72.3043C24.2125 73.5435 26.9382 74.7826 30.9029 75.5261C34.8676 76.2696 40.0712 76.7652 46.7617 76.7652C56.6734 76.7652 63.8594 76.0217 68.3197 74.5348C72.7799 73.0478 75.0101 70.8174 75.0101 68.0913C75.0101 66.1087 74.0189 64.3739 71.7888 63.3826Z" fill="black"/>
<path d="M91.86 50.4956H78.9748C78.727 50.4956 78.727 50.4956 78.4792 50.7434C78.2314 50.9913 78.2314 50.9913 78.2314 51.2391V75.7739C78.2314 76.0217 78.2314 76.0217 78.4792 76.2695C78.727 76.5173 78.727 76.5173 78.9748 76.5173H91.86C92.1078 76.5173 92.1078 76.5173 92.3556 76.2695C92.6034 76.0217 92.6034 76.0217 92.6034 75.7739V51.2391C92.6034 50.9913 92.6034 50.9913 92.3556 50.7434C92.1078 50.4956 91.86 50.4956 91.86 50.4956Z" fill="black"/>
<path d="M269.528 71.313C269.28 71.0652 269.28 71.0652 269.032 71.0652H242.27C242.023 71.0652 242.023 71.0652 241.775 70.8173C241.527 70.5695 241.527 70.5695 241.527 70.3217V51.2391C241.527 50.9913 241.527 50.9913 241.279 50.7434C241.032 50.4956 241.032 50.4956 240.784 50.4956H228.146C227.898 50.4956 227.898 50.4956 227.651 50.7434C227.403 50.9913 227.403 50.9913 227.403 51.2391V75.7739C227.403 76.0217 227.403 76.0217 227.651 76.2695C227.898 76.5173 227.898 76.5173 228.146 76.5173H269.032C269.28 76.5173 269.28 76.5173 269.528 76.2695C269.776 76.0217 269.776 76.0217 269.776 75.7739V71.8087C269.776 71.5608 269.776 71.313 269.528 71.313Z" fill="black"/>
<path d="M217.987 51.4869C215.261 50.7434 212.288 50.4956 208.571 50.4956H172.393C172.145 50.4956 172.145 50.4956 171.897 50.7434C171.649 50.9913 171.649 50.9913 171.649 51.2391V75.7739C171.649 76.0217 171.649 76.0217 171.897 76.2695C172.145 76.5173 172.145 76.5173 172.393 76.5173H186.021C186.269 76.5173 186.269 76.5173 186.517 76.2695C186.765 76.0217 186.765 76.0217 186.765 75.7739V67.5956C186.765 67.3478 186.765 67.3478 187.013 67.1C187.26 66.8521 187.26 66.8521 187.508 66.8521H195.933H197.668C198.659 66.8521 199.898 66.8521 201.385 66.8521C202.871 66.8521 203.863 66.8521 204.606 66.8521C208.323 66.8521 211.544 66.6043 214.765 66.1087C217.987 65.613 220.465 64.6217 222.447 63.6304C224.429 62.3913 225.668 60.9043 225.668 59.1695V58.426C225.668 56.9391 224.925 55.7 223.686 54.4608C222.695 53.2217 220.465 52.2304 217.987 51.4869ZM207.332 61.4C204.606 61.8956 201.385 62.1434 197.172 62.1434C196.429 62.1434 194.199 62.1434 189.986 62.1434C188.747 62.1434 187.756 62.1434 187.508 62.1434C187.26 62.1434 187.26 62.1434 187.013 61.8956C186.765 61.8956 186.765 61.6478 186.765 61.4V56.9391C186.765 56.6913 186.765 56.6913 187.013 56.4434C187.26 56.4434 187.26 56.1956 187.508 56.1956C188.004 56.1956 188.747 56.1956 189.986 56.1956C193.951 56.1956 196.429 56.1956 197.172 56.1956C201.385 56.1956 204.606 56.4434 207.332 56.9391C210.057 57.4347 211.296 58.1782 211.296 59.4173C211.296 60.1608 209.81 61.1521 207.332 61.4Z" fill="black"/>
<path d="M166.941 50.4956H144.64C144.392 50.4956 144.144 50.4956 144.144 50.7435L132.746 64.1261C132.498 64.3739 132.498 64.3739 132.25 64.3739C132.003 64.3739 131.755 64.3739 131.755 64.1261L120.356 50.7435C120.108 50.4956 119.861 50.2478 119.613 50.2478H97.3115C97.0637 50.2478 97.0637 50.2478 96.8159 50.4956C96.5681 50.7435 96.5681 50.7435 96.5681 50.9913V75.5261C96.5681 75.7739 96.5681 75.7739 96.8159 76.0217C97.0637 76.2695 97.0637 76.2695 97.3115 76.2695H109.949C110.197 76.2695 110.197 76.2695 110.445 76.0217C110.692 75.7739 110.692 75.7739 110.692 75.5261V60.1608C110.692 59.913 110.692 59.913 110.94 59.6652C111.188 59.4174 111.188 59.4174 111.436 59.4174C111.683 59.4174 111.931 59.4174 111.931 59.6652L124.073 76.0217C124.073 76.2695 124.321 76.2695 124.569 76.2695H139.436C139.684 76.2695 139.932 76.2695 139.932 76.0217L152.074 59.6652C152.322 59.4174 152.322 59.4174 152.569 59.4174C152.817 59.4174 152.817 59.4174 153.065 59.6652C153.313 59.913 153.313 59.913 153.313 60.1608V75.7739C153.313 76.0217 153.313 76.0217 153.561 76.2695C153.808 76.5174 153.808 76.5174 154.056 76.5174H166.694C166.941 76.5174 166.941 76.5174 167.189 76.2695C167.437 76.0217 167.437 76.0217 167.437 75.7739V51.2391C167.437 50.9913 167.437 50.9913 167.189 50.7435C167.437 50.4956 167.189 50.4956 166.941 50.4956Z" fill="black"/>
</g>
<defs>
<clipPath id="clip0_10_38">
<rect width="393" height="57" fill="white" transform="translate(20 50)"/>
</clipPath>
</defs>
</svg>
