<svg width="433" height="157" viewBox="0 0 433 157" fill="none" xmlns="http://www.w3.org/2000/svg">
<g clip-path="url(#clip0_10_38)">
<path d="M139.362 24.3373C140.456 24.9007 141.466 25.6212 142.144 26.3186L142.394 26.5726C142.394 26.5726 111.709 120.223 111.543 120.717C110.666 123.29 109.734 125.516 108.918 126.971C107.663 129.229 106.403 130.532 104.508 131.543L104.023 131.802C104.023 131.802 113.416 131.783 113.347 131.742C112.447 131.169 112.101 130.827 111.778 130.171C111.013 128.62 111.188 126.287 112.369 122.287C112.945 120.329 115.949 111.156 116.272 110.38C118.302 105.434 122.343 102.048 129.328 99.4337C131.824 98.5006 134.144 97.8078 139.662 96.3529C145.175 94.898 147.607 94.1636 149.904 93.2582C156.197 90.7826 159.56 87.5728 160.746 82.9125C161.023 81.8362 161.207 80.409 161.207 79.3883C161.207 79.171 161.217 79.005 161.226 79.014C161.254 79.0417 174.494 119.405 174.697 120.084C175.223 121.825 175.495 123.363 175.541 124.897C175.606 126.952 175.237 128.532 174.383 129.834C173.927 130.541 173.124 131.285 172.455 131.622C172.307 131.696 172.187 131.765 172.187 131.779C172.187 131.793 192.879 131.802 192.879 131.802L192.441 131.566C191.855 131.252 191.066 130.721 190.641 130.356C188.791 128.777 187.315 126.089 185.617 121.225C185.437 120.703 153.697 24.0232 153.697 24.0232L138.717 24.0046L139.362 24.3373ZM144.096 28.8819C144.94 30.3047 145.77 32.1568 146.61 34.4939C146.836 35.1265 156.363 64.1094 157.23 66.8158C158.559 70.9498 159.339 74.2197 159.671 77.0928C159.786 78.095 159.786 80.4596 159.671 81.2959C159.353 83.5821 158.582 85.4665 157.346 86.9998C156.963 87.471 156.031 88.3763 155.441 88.8475C154.933 89.2539 153.78 90.0253 153.157 90.3808C152.543 90.732 151.173 91.4016 150.412 91.725C147.888 92.7966 145.337 93.5955 139.685 95.0828C134.712 96.3899 132.807 96.9349 130.528 97.7109C124.784 99.6552 120.95 101.932 118.145 105.059C117.956 105.272 117.887 105.327 117.91 105.244C117.942 105.138 140.751 35.4961 142.504 30.1523L143.312 27.6859L143.542 28.0136C143.667 28.1892 143.916 28.5817 144.096 28.8819ZM322.32 24.4851C321.535 26.1245 319.713 28.0043 317.443 29.5194C316.493 30.1523 315.962 30.4618 314.998 30.9373C313.07 31.8843 311.026 32.4894 309.462 32.5724C309.185 32.5863 308.927 32.6095 308.89 32.6187C308.848 32.6326 308.982 32.7388 309.208 32.8727C310.26 33.4963 310.878 34.2307 311.335 35.4039C311.972 37.0341 312.267 39.3067 312.447 44.0686C312.534 46.3455 312.534 120.828 312.447 121.733C312.179 124.509 311.542 126.546 310.412 128.227C309.739 129.239 308.913 130.056 307.847 130.781C307.367 131.109 306.311 131.71 306.223 131.71C306.191 131.71 306.154 131.728 306.14 131.756C306.122 131.788 328.977 131.802 328.977 131.802L328.409 131.502C326.389 130.43 325.051 129.132 324.087 127.308C323.418 126.038 322.919 124.334 322.707 122.565C322.67 122.246 322.624 121.904 322.606 121.802C322.587 121.701 322.518 24.0694 322.518 24.0694L322.32 24.4851ZM271.285 61.2736C264.702 61.6244 259.512 63.2734 254.022 66.7606C251.895 68.1137 250.511 69.2224 248.767 70.9683C247.484 72.2523 246.737 73.1159 245.763 74.4369C241.971 79.5824 239.628 86.2287 239.014 93.5816C238.797 96.2051 238.788 99.6552 238.995 102.242C239.586 109.673 242.128 116.232 246.432 121.41C247.129 122.246 249.058 124.186 249.855 124.846C253.316 127.728 257.196 129.682 261.703 130.814C263.89 131.363 266.404 131.737 268.956 131.899C270.053 131.968 272.835 131.927 274.146 131.825C281.536 131.257 287.585 129.04 292.161 125.22C295.382 122.537 297.716 119.225 298.929 115.636C299.487 113.974 299.824 112.172 299.852 110.671L299.866 110.071H298.666L298.657 110.463C298.556 114.348 296.936 118.324 294.14 121.558C290.786 125.433 285.601 128.37 279.931 129.608C276.724 130.306 273.19 130.499 270.293 130.135C267.867 129.83 265.721 129.178 263.535 128.079C258.109 125.35 253.989 120.528 251.595 114.112C251.249 113.184 251.24 113.322 251.692 112.643C252.882 110.865 254.391 109.401 256.388 108.094C258.723 106.565 261.449 105.341 265.389 104.052C267.322 103.42 269.052 102.921 273.776 101.642C279.276 100.15 281.859 99.3507 284.595 98.2975C289.541 96.3853 292.475 94.6996 294.791 92.4455C295.88 91.3784 296.646 90.4178 297.365 89.2215C300.738 83.596 300.733 76.5294 297.347 70.9405C294.971 67.0053 290.441 64.0955 284.226 62.4974C281.952 61.9108 279.506 61.5322 276.614 61.3196C275.747 61.2551 272.236 61.2227 271.285 61.2736ZM274.976 62.5714C280.425 63.0056 285.412 66.0447 288.138 70.594C290.611 74.714 291.192 79.8224 289.758 84.7599C288.992 87.4019 287.746 89.5542 285.933 91.3645C284.217 93.083 282.473 94.2697 279.405 95.8033C277.306 96.8565 275.373 97.6924 270.709 99.563C266.017 101.443 264.591 102.048 262.437 103.069C257.283 105.507 253.579 108.26 251.226 111.401L250.852 111.9L250.76 111.586C250.285 109.96 249.92 108.32 249.602 106.376C248.67 100.667 248.522 93.8865 249.21 88.501C249.975 82.5289 251.77 77.4437 254.571 73.3054C255.558 71.8459 256.245 71.0099 257.417 69.8414C260.31 66.9544 264.111 64.5759 267.761 63.3703C270.007 62.6313 272.392 62.3635 274.976 62.5714ZM176.533 61.6152C177.207 61.9895 177.655 62.2897 178.171 62.7192C179.989 64.234 181.419 66.7606 183.061 71.3423C183.325 72.0813 202.918 131.802 202.918 131.802H213.423C213.423 131.802 231.711 75.8687 232.606 73.19C234.996 66.0493 236.753 63.2596 239.914 61.5781L240.398 61.3196C240.398 61.3196 231.009 61.3288 231.009 61.3381C231.009 61.3473 231.162 61.4442 231.346 61.5553C231.771 61.8046 232.278 62.3125 232.523 62.7285C233.168 63.8323 233.261 65.4859 232.809 67.8138C232.564 69.0561 232.075 70.839 231.471 72.7049C229.759 77.9704 212.814 129.664 212.786 129.691C212.768 129.714 212.726 129.664 212.703 129.576C212.648 129.41 195.532 77.2175 194.701 74.6909C193.714 71.6842 193.391 70.1598 193.331 68.2248C193.266 66.1601 193.645 64.5574 194.498 63.2734C194.973 62.5622 195.652 61.9247 196.344 61.5461C196.533 61.4396 196.685 61.3473 196.685 61.3381C196.685 61.3288 175.994 61.3196 175.994 61.3196L176.533 61.6152Z" fill="black"/>
</g>
<defs>
<clipPath id="clip0_10_38">
<rect width="225" height="108" fill="white" transform="translate(104 24)"/>
</clipPath>
</defs>
</svg>
