<svg width="433" height="157" viewBox="0 0 433 157" fill="none" xmlns="http://www.w3.org/2000/svg">
<g clip-path="url(#clip0_10_38)">
<path d="M238.566 17V79.639H192.399V17" fill="black"/>
<path d="M101.673 92.949L105.627 101.814H98.007L101.673 92.949ZM102.967 87.565H100.487L89.956 112.238H93.551L96.642 104.982H107.066L110.337 112.238H113.932L102.967 87.565ZM128.015 90.738H130.271C133.675 90.738 135.037 92.142 135.073 94.448C135.109 96.502 134.034 98.445 130.271 98.445H128.015V90.738ZM124.517 87.698V112.238H128.015V101.612H129.484C131.275 101.612 132.744 102.187 135.97 107.215L139.2 112.238H143.41C141.719 109.906 141.107 109.08 140.063 107.392C138.195 104.34 136.832 102.079 134.606 100.605C137.226 99.562 138.697 97.438 138.697 94.591C138.697 90.34 135.611 87.697 130.666 87.697L124.517 87.698ZM146.565 99.965C146.565 94.572 150.626 90.615 156.086 90.615C161.583 90.615 165.643 94.572 165.643 99.965C165.643 105.324 161.583 109.315 156.086 109.315C150.625 109.314 146.565 105.324 146.565 99.965ZM142.94 99.965C142.94 106.619 148.002 112.553 156.013 112.553C164.312 112.553 169.266 106.584 169.266 99.965C169.266 93.133 164.168 87.377 156.084 87.377C148.146 87.377 142.94 93.168 142.94 99.965ZM194.471 93.168C191.45 91.406 188.86 90.615 186.018 90.615C180.407 90.615 176.234 94.607 176.234 100.001C176.234 105.504 180.262 109.314 186.162 109.314C188.933 109.314 191.954 108.343 194.724 106.546V110.394C192.314 111.654 189.688 112.552 185.839 112.552C176.631 112.552 172.61 105.468 172.61 100.324C172.61 92.845 178.25 87.376 186.055 87.376C188.573 87.376 191.127 87.987 194.472 89.392L194.471 93.168ZM219.824 112.238H216.327V101.549H202.592V112.238H199.094V87.691H202.592V98.38H216.327V87.691H219.824V112.238ZM239.21 90.865H228.814V98.254H238.85V101.422H228.814V109.065H239.533V112.233H225.317V87.698H239.21V90.865ZM242.031 102.644V106.002H250.742V102.644H242.031ZM258.481 90.865H262.627C265.837 90.865 266.811 92.804 266.811 94.601C266.811 97.043 265.117 98.445 262.483 98.445H258.481V90.865ZM254.982 87.698V112.238H258.48V101.612H262.159C267.852 101.612 270.434 98.59 270.434 94.746C270.434 90.865 267.995 87.698 262.626 87.698H254.982ZM276.099 99.965C276.099 94.572 280.159 90.615 285.62 90.615C291.118 90.615 295.177 94.572 295.177 99.965C295.177 105.324 291.118 109.315 285.62 109.315C280.158 109.314 276.099 105.324 276.099 99.965ZM272.474 99.965C272.474 106.619 277.537 112.553 285.547 112.553C293.847 112.553 298.801 106.584 298.801 99.965C298.801 93.133 293.703 87.377 285.619 87.377C277.679 87.377 272.474 93.168 272.474 99.965ZM314.717 93.101C312.65 91.124 310.628 90.547 308.964 90.547C306.688 90.547 305.06 91.735 305.06 93.459C305.06 98.168 315.679 98.096 315.679 105.897C315.679 109.745 312.793 112.551 308.821 112.551C306.144 112.551 303.99 111.832 301.959 110.283V105.824C303.741 108.125 306 109.383 308.422 109.383C311.172 109.383 312.436 107.658 312.436 106.291C312.436 101.225 301.817 100.649 301.817 93.928C301.817 89.938 304.741 87.38 309.255 87.38C311.136 87.38 313.009 87.955 314.719 89.109V93.101H314.717ZM328.798 92.949L332.751 101.814H325.132L328.798 92.949ZM330.092 87.565H327.612L317.08 112.238H320.675L323.766 104.982H334.191L337.461 112.238H341.056L330.092 87.565ZM76.815 133.703H82.158V135.611H75.129V120.826H76.816L76.815 133.703ZM88.593 123.986L90.501 129.347H86.822L88.593 123.986ZM89.217 120.73H88.02L82.935 135.611H84.67L86.164 131.256H91.195L92.773 135.611H94.508L89.217 120.73ZM98.053 122.734H99.627C101.202 122.734 101.71 123.687 101.71 124.793C101.71 126.375 100.887 127.152 99.19 127.152H98.052L98.053 122.734ZM96.367 135.611H100.416C103.385 135.611 104.476 133.486 104.476 131.666C104.476 129.67 103.403 128.217 101.632 127.805C102.887 127.133 103.459 126.137 103.459 124.598C103.459 122.735 102.367 120.827 99.803 120.827H96.367V135.611ZM98.053 129.063H100.117C101.893 129.063 102.726 130.016 102.726 131.362C102.726 132.467 102.188 133.704 100.19 133.704H98.052L98.053 129.063ZM107.898 128.219C107.898 124.963 109.86 122.574 112.5 122.574C115.157 122.574 117.118 124.963 117.118 128.219C117.118 131.453 115.157 133.864 112.5 133.864C109.859 133.863 107.898 131.453 107.898 128.219ZM106.149 128.219C106.149 132.235 108.593 135.803 112.464 135.803C116.476 135.803 118.866 132.213 118.866 128.219C118.866 124.096 116.406 120.635 112.499 120.635C108.661 120.635 106.149 124.117 106.149 128.219ZM123.574 122.639H124.673C126.328 122.639 126.991 123.485 127.009 124.871C127.026 126.109 126.503 127.281 124.673 127.281H123.574V122.639ZM121.89 120.826V135.611H123.575V129.187H124.29C125.162 129.187 125.876 129.535 127.442 132.574L129.002 135.611H131.031C130.216 134.201 129.921 133.701 129.417 132.681C128.516 130.835 127.858 129.47 126.783 128.581C128.048 127.952 128.758 126.673 128.758 124.96C128.758 122.399 127.27 120.825 124.865 120.825L121.89 120.826ZM137.402 123.986L139.31 129.347H135.631L137.402 123.986ZM138.026 120.73H136.829L131.745 135.611H133.481L134.972 131.256H140.004L141.583 135.611H143.318L138.026 120.73ZM152.88 122.734H148.785V135.611H147.099V122.734H143.003V120.826H152.879L152.88 122.734ZM155.268 128.219C155.268 124.963 157.23 122.574 159.87 122.574C162.527 122.574 164.489 124.963 164.489 128.219C164.489 131.453 162.527 133.864 159.87 133.864C157.23 133.863 155.268 131.453 155.268 128.219ZM153.519 128.219C153.519 132.235 155.962 135.803 159.835 135.803C163.846 135.803 166.236 132.213 166.236 128.219C166.236 124.096 163.776 120.635 159.869 120.635C156.032 120.635 153.519 124.117 153.519 128.219ZM169.068 120.826V135.611H170.754V120.826H169.068ZM175.578 122.639H176.676C178.332 122.639 178.995 123.485 179.012 124.871C179.03 126.109 178.507 127.281 176.676 127.281H175.578V122.639ZM173.893 120.826V135.611H175.579V129.187H176.295C177.165 129.187 177.881 129.535 179.446 132.574L181.005 135.611H183.035C182.22 134.201 181.925 133.701 181.421 132.681C180.52 130.835 179.861 129.47 178.787 128.581C180.052 127.952 180.763 126.673 180.763 124.96C180.763 122.399 179.273 120.825 176.869 120.825L173.893 120.826ZM191.806 122.734H186.791V127.185H191.632V129.093H186.791V133.702H191.961V135.61H185.106V120.825H191.806V122.734ZM200.369 122.734H202.378C203.935 122.734 204.406 123.906 204.406 124.99C204.406 126.467 203.585 127.312 202.308 127.312H200.369V122.734ZM198.684 120.826V135.611H200.37V129.22H202.152C204.91 129.22 206.156 127.4 206.156 125.077C206.156 122.733 204.978 120.825 202.379 120.825L198.684 120.826ZM218.598 135.611H216.913V129.156H210.267V135.611H208.581V120.826H210.267V127.248H216.913V120.826H218.598V135.611ZM226.036 123.986L227.944 129.347H224.266L226.036 123.986ZM226.661 120.73H225.464L220.379 135.611H222.115L223.607 131.256H228.639L230.218 135.611H231.953L226.661 120.73ZM235.719 122.639H236.819C238.475 122.639 239.137 123.485 239.154 124.871C239.172 126.109 238.649 127.281 236.819 127.281H235.719V122.639ZM234.035 120.826V135.611H235.719V129.187H236.434C237.307 129.187 238.021 129.535 239.587 132.574L241.145 135.611H243.176C242.361 134.201 242.065 133.701 241.562 132.681C240.661 130.835 240.004 129.47 238.927 128.581C240.193 127.952 240.903 126.673 240.903 124.96C240.903 122.399 239.413 120.825 237.01 120.825L234.035 120.826ZM256.213 135.611H254.528V124.101L250.836 129.824H250.558L246.901 124.101L246.866 135.611H245.18V120.826H246.762L250.696 126.896L254.649 120.826H256.213V135.611ZM263.828 123.986L265.737 129.347H262.057L263.828 123.986ZM264.452 120.73H263.254L258.173 135.611H259.906L261.399 131.256H266.431L268.009 135.611H269.743L264.452 120.73ZM281.326 124.117C279.869 123.053 278.618 122.574 277.248 122.574C274.541 122.574 272.528 124.984 272.528 128.24C272.528 131.56 274.471 133.863 277.317 133.863C278.653 133.863 280.112 133.277 281.447 132.191V134.509C280.284 135.263 279.019 135.802 277.162 135.802C272.72 135.802 270.779 131.54 270.779 128.435C270.779 123.921 273.501 120.634 277.265 120.634C278.48 120.634 279.711 121.001 281.326 121.841V124.117ZM290.952 122.734H285.937V127.185H290.78V129.093H285.937V133.702H291.109V135.61H284.254V120.825H290.952V122.734ZM303.509 129.807C303.509 133.43 301.789 135.803 298.273 135.803C295.779 135.803 293.368 134.057 293.368 130.024V120.827H295.053V129.567C295.053 131.239 295.226 131.934 295.763 132.606C296.438 133.452 297.286 133.864 298.309 133.864C299.608 133.864 300.543 133.343 301.081 132.671C301.685 131.911 301.824 130.827 301.824 129.439V120.828H303.51L303.509 129.807ZM315.172 122.734H311.076V135.611H309.392V122.734H305.295V120.826H315.171L315.172 122.734ZM317.531 120.826V135.611H319.216V120.826H317.531ZM347.53 129.807C347.53 133.43 345.81 135.803 342.294 135.803C339.8 135.803 337.387 134.057 337.387 130.024V120.827H339.073V129.567C339.073 131.239 339.247 131.934 339.783 132.606C340.46 133.452 341.307 133.864 342.33 133.864C343.629 133.864 344.564 133.343 345.101 132.671C345.707 131.911 345.846 130.827 345.846 129.439V120.828H347.532V129.807H347.53ZM357.306 122.734H352.291V127.185H357.134V129.093H352.291V133.702H357.463V135.61H350.606V120.825H357.306V122.734ZM328.563 122.574C331.184 122.574 333.111 125.051 333.111 128.285C333.111 131.303 331.237 133.865 328.598 133.865C325.439 133.865 323.859 131.238 323.859 128.242C323.858 126.006 325.022 122.574 328.563 122.574ZM329.934 135.631C332.798 134.934 334.86 131.846 334.86 128.264C334.86 123.922 332.173 120.635 328.632 120.635C324.795 120.635 322.11 123.748 322.11 128.219C322.11 131.912 324.137 134.934 327.069 135.631C328.719 137.135 330.594 138.414 332.884 138.631L334.409 136.746C333.197 137.092 332.016 136.746 329.933 135.652V135.631H329.934ZM354.6 87.691H358.844L349.743 99.281V112.238H346.247V99.246L337.144 87.691H341.39L347.957 96.15L354.6 87.691ZM78.498 109.064H89.577V112.232H75V87.691H78.498V109.064Z" fill="black"/>
</g>
<defs>
<clipPath id="clip0_10_38">
<rect width="283.844" height="121.631" fill="white" transform="translate(75 17)"/>
</clipPath>
</defs>
</svg>
