<svg width="433" height="157" viewBox="0 0 433 157" fill="none" xmlns="http://www.w3.org/2000/svg">
<path d="M381.75 135.7V21H238.39L288.81 135.7H381.75Z" fill="black"/>
<path d="M113.98 96.2399C107.32 102.6 100.76 106.84 90.33 106.84C74.23 106.84 62.08 93.82 62.08 76.57C62.08 59.32 74.23 46.5 90.33 46.5C99.03 46.5 105.91 49.5 113.33 56.56L113.82 57.03L120.49 49.86L120.01 49.41C113.39 43.16 105.22 37.41 90.42 37.41C68.52 37.38 52 54.32 52 76.78C52 99.24 68.38 115.96 90.12 115.96C105.28 115.96 113.96 109.22 120.46 102.64L120.93 102.16L114.45 95.8L113.98 96.2399Z" fill="black"/>
<path d="M148.49 57.04C133.03 57.04 121.36 69.68 121.36 86.49C121.36 103.3 133.49 115.96 149.56 115.96C159.07 115.96 166.23 112.7 172.78 105.39L173.22 104.89L167.13 99.43L166.68 99.9C161.74 105.07 156.37 107.48 149.77 107.48C139.85 107.48 132.42 100.54 131.1 90.14H174.69L174.76 89.55C174.847 88.6762 174.884 87.7981 174.87 86.92C174.87 69.04 164.23 57.04 148.49 57.04ZM131.1 82.73C132.4 72.42 139.38 65.28 148.28 65.28C159.28 65.28 164.2 74.16 165.15 82.73H131.1Z" fill="black"/>
<path d="M211.06 67.42V57.25H210.42C201.31 56.87 193.31 61.8 188.54 70.43V58.19H178.99V114.68H188.54V92.04C188.54 77.04 196.87 67.42 209.75 67.42H211.06Z" fill="black"/>
<path d="M320.21 38.6599L293.98 101.92L267.86 38.6599H257.01L289.7 115.21H298.05L330.74 38.6599H320.21Z" fill="white"/>
<path d="M232.07 57.4399H214.91V66.0399H231.58C241.51 66.1599 246.98 71.2599 246.98 80.4099V81.4099C241.675 79.9321 236.187 79.2117 230.68 79.2699C215.5 79.2699 206.43 86.2199 206.43 97.8599C206.43 110.2 217.43 115.86 227.69 115.86C237.29 115.86 243.36 111.63 246.98 107.56V114.69H256.23V80.2999C256.23 65.5599 247.66 57.4399 232.1 57.4399M229.29 108.04C222.94 108.04 216.09 104.78 216.09 97.6099C216.09 90.8199 221.86 86.7599 231.53 86.7599C236.789 86.7615 242.023 87.4952 247.08 88.9399V93.7399C247.08 101.88 239.44 108.01 229.29 108.01" fill="black"/>
<path d="M64.92 134.86C64.2914 135.434 63.4608 135.737 62.61 135.7H59.48V126.78H62.61C63.0315 126.76 63.4528 126.824 63.8494 126.968C64.246 127.112 64.61 127.334 64.92 127.62C65.92 128.62 65.82 129.88 65.82 131.17C65.82 132.46 65.88 133.89 64.92 134.86ZM63.99 128.59C63.7932 128.389 63.556 128.231 63.2941 128.128C63.0321 128.024 62.7513 127.977 62.47 127.99H60.83V134.48H62.47C62.7519 134.498 63.0343 134.454 63.297 134.35C63.5598 134.246 63.7964 134.086 63.99 133.88C64.45 133.37 64.47 132.4 64.47 131.17C64.47 129.94 64.47 129.11 63.99 128.59Z" fill="black"/>
<path d="M67.82 135.7V126.77H73.52V127.99H69.17V130.6H72.88V131.8H69.17V134.48H73.52V135.7H67.82Z" fill="black"/>
<path d="M78.25 135.7H77.2L74.27 126.77H75.68L77.73 133.26L79.78 126.77H81.21L78.25 135.7Z" fill="black"/>
<path d="M82.44 135.7V126.77H88.14V127.99H83.79V130.6H87.5V131.8H83.79V134.48H88.14V135.7H82.44Z" fill="black"/>
<path d="M89.99 135.7V126.77H91.34V134.48H95.64V135.7H89.99Z" fill="black"/>
<path d="M102.09 134.82C101.787 135.138 101.423 135.391 101.018 135.563C100.614 135.735 100.179 135.822 99.74 135.82C99.3021 135.823 98.8683 135.736 98.4656 135.564C98.063 135.392 97.7002 135.139 97.4 134.82C96.52 133.94 96.53 132.95 96.53 131.24C96.53 129.53 96.53 128.53 97.4 127.65C97.7002 127.331 98.063 127.078 98.4656 126.906C98.8683 126.734 99.3021 126.647 99.74 126.65C100.179 126.648 100.614 126.735 101.018 126.907C101.423 127.079 101.787 127.332 102.09 127.65C102.97 128.53 102.94 129.52 102.94 131.24C102.94 132.96 102.94 133.94 102.09 134.82ZM101.09 128.47C100.917 128.294 100.71 128.154 100.481 128.06C100.252 127.965 100.007 127.918 99.76 127.92C99.5125 127.916 99.2668 127.963 99.038 128.057C98.8092 128.152 98.6023 128.292 98.43 128.47C97.99 128.94 97.9 129.47 97.9 131.24C97.9 133.01 97.99 133.53 98.43 134.01C98.6037 134.186 98.8109 134.325 99.0393 134.42C99.2678 134.514 99.5128 134.562 99.76 134.56C100.007 134.56 100.252 134.512 100.48 134.417C100.708 134.323 100.915 134.185 101.09 134.01C101.52 133.53 101.61 133.01 101.61 131.24C101.61 129.47 101.52 128.94 101.09 128.47Z" fill="black"/>
<path d="M108.33 132.19H106.33V135.7H104.95V126.78H108.33C108.699 126.757 109.069 126.811 109.416 126.937C109.764 127.062 110.082 127.258 110.352 127.511C110.621 127.765 110.836 128.071 110.982 128.41C111.129 128.749 111.205 129.115 111.205 129.485C111.205 129.855 111.129 130.22 110.982 130.56C110.836 130.899 110.621 131.205 110.352 131.458C110.082 131.712 109.764 131.907 109.416 132.033C109.069 132.159 108.699 132.212 108.33 132.19ZM108.23 128.04H106.23V131.04H108.23C108.628 131.04 109.009 130.882 109.291 130.601C109.572 130.319 109.73 129.938 109.73 129.54C109.73 129.142 109.572 128.761 109.291 128.479C109.009 128.198 108.628 128.04 108.23 128.04Z" fill="black"/>
<path d="M112.83 135.7V126.77H118.53V127.99H114.18V130.6H117.89V131.8H114.18V134.48H118.53V135.7H112.83Z" fill="black"/>
<path d="M125.82 134.86C125.191 135.434 124.361 135.737 123.51 135.7H120.38V126.78H123.51C123.932 126.76 124.353 126.824 124.749 126.968C125.146 127.112 125.51 127.334 125.82 127.62C126.82 128.62 126.72 129.88 126.72 131.17C126.72 132.46 126.78 133.89 125.82 134.86ZM124.89 128.59C124.693 128.389 124.456 128.231 124.194 128.128C123.932 128.024 123.651 127.977 123.37 127.99H121.73V134.48H123.37C123.652 134.498 123.934 134.454 124.197 134.35C124.46 134.246 124.696 134.086 124.89 133.88C125.35 133.37 125.36 132.4 125.36 131.17C125.36 129.94 125.36 129.11 124.89 128.59Z" fill="black"/>
<path d="M139.01 135.7H137.83L136.01 129.44L134.21 135.7H133.03L130.7 126.77H132.13L133.68 133.15L135.47 126.77H136.56L138.36 133.15L139.91 126.77H141.34L139.01 135.7Z" fill="black"/>
<path d="M143.99 126.78H142.64V135.7H143.99V126.78Z" fill="black"/>
<path d="M149.34 127.99V135.7H147.98V127.99H145.53V126.77H151.79V127.99H149.34Z" fill="black"/>
<path d="M158.31 135.7V131.8H154.68V135.7H153.33V126.77H154.68V130.59H158.31V126.77H159.66V135.7H158.31Z" fill="black"/>
<path d="M170.43 134.86C170.121 135.145 169.759 135.365 169.364 135.509C168.969 135.654 168.55 135.718 168.13 135.7H164.99V126.78H168.13C168.55 126.759 168.97 126.823 169.365 126.967C169.76 127.112 170.122 127.333 170.43 127.62C171.43 128.62 171.33 129.88 171.33 131.17C171.33 132.46 171.4 133.89 170.43 134.86ZM169.5 128.59C169.307 128.386 169.072 128.226 168.812 128.122C168.551 128.019 168.27 127.973 167.99 127.99H166.35V134.48H167.99C168.271 134.499 168.552 134.455 168.813 134.351C169.075 134.248 169.309 134.086 169.5 133.88C169.97 133.37 169.98 132.4 169.98 131.17C169.98 129.94 169.98 129.11 169.5 128.59Z" fill="black"/>
<path d="M173.34 135.7V126.77H179.04V127.99H174.69V130.6H178.4V131.8H174.69V134.48H179.04V135.7H173.34Z" fill="black"/>
<path d="M185.81 135.7L183.93 131.94H182.23V135.7H180.88V126.78H184.34C184.697 126.749 185.057 126.794 185.396 126.911C185.734 127.028 186.044 127.216 186.306 127.461C186.567 127.707 186.774 128.004 186.913 128.335C187.051 128.666 187.118 129.022 187.11 129.38C187.131 129.919 186.965 130.449 186.641 130.881C186.317 131.313 185.854 131.62 185.33 131.75L187.33 135.75L185.81 135.7ZM184.23 128.04H182.23V130.83H184.23C184.423 130.846 184.618 130.823 184.801 130.76C184.984 130.697 185.153 130.597 185.295 130.466C185.438 130.335 185.552 130.176 185.63 129.998C185.708 129.821 185.748 129.629 185.748 129.435C185.748 129.241 185.708 129.05 185.63 128.872C185.552 128.695 185.438 128.535 185.295 128.404C185.153 128.273 184.984 128.173 184.801 128.11C184.618 128.048 184.423 128.024 184.23 128.04Z" fill="black"/>
<path d="M195.61 135.7V129.73L193.55 134.08H192.55L190.45 129.73V135.7H189.09V126.77H190.45L193.05 132.33L195.61 126.77H196.96V135.7H195.61Z" fill="black"/>
<path d="M204.4 135.7L203.79 133.9H200.23L199.61 135.7H198.23L201.5 126.77H202.59L205.86 135.7H204.4ZM202.06 128.79L200.67 132.79H203.41L202.06 128.79Z" fill="black"/>
<path d="M209.37 127.99V135.7H208.02V127.99H205.56V126.77H211.83V127.99H209.37Z" fill="black"/>
<path d="M218.36 134.82C218.055 135.137 217.688 135.39 217.282 135.562C216.877 135.733 216.441 135.821 216 135.82C215.562 135.822 215.129 135.735 214.726 135.563C214.324 135.391 213.961 135.138 213.66 134.82C212.78 133.94 212.79 132.95 212.79 131.24C212.79 129.53 212.79 128.53 213.66 127.65C213.961 127.332 214.324 127.079 214.726 126.907C215.129 126.735 215.562 126.648 216 126.65C216.441 126.649 216.877 126.736 217.282 126.908C217.688 127.08 218.055 127.332 218.36 127.65C219.23 128.53 219.21 129.52 219.21 131.24C219.21 132.96 219.21 133.94 218.36 134.82ZM217.36 128.47C217.187 128.294 216.98 128.154 216.751 128.06C216.522 127.965 216.277 127.918 216.03 127.92C215.782 127.916 215.537 127.962 215.308 128.057C215.079 128.152 214.872 128.292 214.7 128.47C214.26 128.94 214.18 129.47 214.18 131.24C214.18 133.01 214.26 133.53 214.7 134.01C214.874 134.186 215.081 134.325 215.309 134.42C215.538 134.514 215.783 134.562 216.03 134.56C216.277 134.56 216.522 134.512 216.75 134.417C216.978 134.323 217.185 134.184 217.36 134.01C217.8 133.53 217.88 133.01 217.88 131.24C217.88 129.47 217.8 128.94 217.36 128.47Z" fill="black"/>
<path d="M221.21 135.7V126.77H222.56V134.48H226.86V135.7H221.21Z" fill="black"/>
<path d="M233.31 134.82C232.68 135.43 231.837 135.771 230.96 135.771C230.083 135.771 229.24 135.43 228.61 134.82C227.73 133.94 227.75 132.95 227.75 131.24C227.75 129.53 227.75 128.53 228.61 127.65C229.24 127.04 230.083 126.699 230.96 126.699C231.837 126.699 232.68 127.04 233.31 127.65C234.19 128.53 234.16 129.52 234.16 131.24C234.16 132.96 234.16 133.94 233.31 134.82ZM232.31 128.47C232.136 128.296 231.93 128.157 231.702 128.063C231.475 127.968 231.231 127.92 230.985 127.92C230.739 127.92 230.495 127.968 230.268 128.063C230.04 128.157 229.834 128.296 229.66 128.47C229.22 128.94 229.13 129.47 229.13 131.24C229.13 133.01 229.22 133.53 229.66 134.01C229.834 134.185 230.04 134.323 230.268 134.417C230.495 134.512 230.739 134.561 230.985 134.561C231.231 134.561 231.475 134.512 231.702 134.417C231.93 134.323 232.136 134.185 232.31 134.01C232.75 133.53 232.84 133.01 232.84 131.24C232.84 129.47 232.75 128.94 232.31 128.47Z" fill="black"/>
<path d="M241.5 134.76C241.185 135.09 240.804 135.35 240.382 135.523C239.96 135.695 239.506 135.776 239.05 135.76C238.611 135.76 238.177 135.671 237.773 135.499C237.37 135.327 237.005 135.076 236.7 134.76C235.83 133.88 235.84 132.89 235.84 131.17C235.84 129.45 235.84 128.47 236.7 127.59C237.004 127.273 237.368 127.021 237.772 126.849C238.176 126.677 238.611 126.589 239.05 126.59C239.84 126.557 240.613 126.824 241.214 127.338C241.815 127.852 242.2 128.575 242.29 129.36H240.93C240.864 128.915 240.635 128.51 240.288 128.224C239.94 127.938 239.5 127.79 239.05 127.81C238.804 127.806 238.56 127.852 238.332 127.947C238.105 128.041 237.9 128.182 237.73 128.36C237.29 128.83 237.19 129.36 237.19 131.12C237.19 132.88 237.29 133.43 237.73 133.91C237.901 134.086 238.106 134.225 238.334 134.318C238.561 134.411 238.805 134.456 239.05 134.45C239.323 134.456 239.594 134.403 239.844 134.294C240.094 134.185 240.318 134.024 240.5 133.82C240.822 133.428 240.983 132.927 240.95 132.42V132.04H239.05V130.89H242.31V132.26C242.353 132.713 242.304 133.17 242.164 133.604C242.025 134.037 241.799 134.437 241.5 134.78" fill="black"/>
<path d="M245.64 126.78H244.29V135.7H245.64V126.78Z" fill="black"/>
<path d="M250.35 135.77C249.769 135.815 249.185 135.733 248.64 135.529C248.094 135.326 247.599 135.005 247.19 134.59L248.09 133.7C248.386 133.999 248.742 134.231 249.136 134.379C249.53 134.528 249.95 134.589 250.37 134.56C251.54 134.56 252.21 134.06 252.21 133.19C252.221 133.019 252.195 132.848 252.135 132.687C252.075 132.527 251.981 132.381 251.86 132.26C251.582 132.02 251.227 131.888 250.86 131.89L249.8 131.74C249.175 131.683 248.584 131.431 248.11 131.02C247.887 130.799 247.714 130.533 247.602 130.24C247.49 129.947 247.441 129.633 247.46 129.32C247.46 127.76 248.59 126.7 250.46 126.7C250.965 126.67 251.471 126.744 251.948 126.916C252.424 127.088 252.86 127.354 253.23 127.7L252.36 128.56C252.102 128.317 251.796 128.131 251.462 128.012C251.128 127.893 250.773 127.845 250.42 127.87C249.42 127.87 248.79 128.47 248.79 129.26C248.784 129.415 248.811 129.569 248.87 129.712C248.928 129.855 249.017 129.984 249.13 130.09C249.421 130.312 249.766 130.454 250.13 130.5L251.13 130.65C251.742 130.689 252.326 130.92 252.8 131.31C253.044 131.546 253.235 131.831 253.359 132.147C253.483 132.462 253.538 132.801 253.52 133.14C253.52 134.78 252.18 135.76 250.32 135.76" fill="black"/>
<path d="M258.39 127.99V135.7H257.03V127.99H254.58V126.77H260.84V127.99H258.39Z" fill="black"/>
<path d="M264.75 135.77C264.169 135.815 263.585 135.733 263.04 135.529C262.494 135.325 261.999 135.005 261.59 134.59L262.49 133.7C262.786 133.998 263.143 134.229 263.537 134.377C263.93 134.526 264.351 134.588 264.77 134.56C265.94 134.56 266.62 134.06 266.62 133.19C266.63 133.018 266.602 132.846 266.54 132.686C266.478 132.526 266.383 132.38 266.26 132.26C265.982 132.02 265.627 131.888 265.26 131.89L264.23 131.74C263.602 131.685 263.007 131.433 262.53 131.02C262.307 130.799 262.134 130.533 262.022 130.24C261.91 129.947 261.861 129.633 261.88 129.32C261.88 127.76 263.01 126.7 264.88 126.7C265.385 126.669 265.892 126.742 266.368 126.914C266.844 127.086 267.281 127.353 267.65 127.7L266.79 128.56C266.531 128.319 266.225 128.133 265.891 128.015C265.558 127.896 265.203 127.847 264.85 127.87C263.79 127.87 263.22 128.47 263.22 129.26C263.214 129.415 263.241 129.569 263.3 129.712C263.358 129.855 263.447 129.984 263.56 130.09C263.849 130.316 264.195 130.458 264.56 130.5L265.56 130.65C266.172 130.689 266.756 130.92 267.23 131.31C267.477 131.544 267.671 131.828 267.797 132.144C267.923 132.46 267.979 132.8 267.96 133.14C267.96 134.78 266.62 135.76 264.75 135.76" fill="black"/>
<path d="M344.03 57.04C328.57 57.04 316.91 69.71 316.91 86.52C316.91 103.33 329.03 115.99 345.1 115.99C354.61 115.99 361.77 112.73 368.32 105.42L368.77 104.92L362.67 99.46L362.22 99.93C357.29 105.1 351.92 107.51 345.32 107.51C335.39 107.51 327.97 100.57 326.64 90.17H370.23L370.3 89.58C370.387 88.7062 370.424 87.8281 370.41 86.95C370.42 69.04 359.81 57.04 344.03 57.04ZM360.69 82.76H326.69C328 72.45 334.98 65.31 343.87 65.31C354.87 65.31 359.8 74.19 360.74 82.76" fill="white"/>
<path d="M362.45 54.5401C361.409 54.5441 360.378 54.3419 359.416 53.9451C358.454 53.5484 357.58 52.965 356.844 52.2286C356.109 51.4923 355.527 50.6175 355.131 49.6549C354.736 48.6923 354.535 47.6608 354.54 46.6201C354.536 45.0476 354.999 43.5093 355.871 42.2003C356.742 40.8913 357.982 39.8706 359.435 39.2674C360.887 38.6643 362.485 38.5059 364.028 38.8125C365.57 39.119 366.987 39.8766 368.098 40.9893C369.209 42.1019 369.965 43.5195 370.27 45.0622C370.574 46.6049 370.414 48.2033 369.809 49.6548C369.204 51.1063 368.182 52.3455 366.871 53.2152C365.561 54.0849 364.023 54.546 362.45 54.5401ZM362.45 39.5401C361.049 39.5282 359.675 39.9337 358.505 40.7049C357.335 41.4761 356.421 42.5781 355.879 43.8705C355.337 45.163 355.193 46.5875 355.463 47.9625C355.734 49.3376 356.407 50.6011 357.398 51.592C358.389 52.583 359.653 53.2566 361.028 53.5271C362.403 53.7976 363.827 53.6527 365.12 53.111C366.412 52.5692 367.514 51.655 368.285 50.4848C369.056 49.3147 369.462 47.9415 369.45 46.5401C369.45 44.6836 368.713 42.9031 367.4 41.5904C366.087 40.2776 364.307 39.5401 362.45 39.5401ZM364.45 47.5401L366.51 50.5401H364.34L362.54 47.8201H361.07V50.5401H359.23V42.1501H362.98C364.98 42.1501 366.29 43.1501 366.29 44.9401C366.317 45.5162 366.154 46.0853 365.825 46.559C365.496 47.0327 365.019 47.3846 364.47 47.5601M362.91 43.8001H361.09V46.2701H362.96C363.9 46.2701 364.41 45.7701 364.41 45.0401C364.41 44.3101 363.83 43.8001 362.91 43.8001Z" fill="white"/>
</svg>
