<svg width="433" height="157" viewBox="0 0 433 157" fill="none" xmlns="http://www.w3.org/2000/svg">
<g clip-path="url(#clip0_10_38)">
<path d="M111 60.506H123.936V69.2391C125.757 66.1915 128.346 63.6737 131.444 61.9361C134.541 60.1986 138.041 59.302 141.593 59.3354C154.327 59.3354 161.715 67.853 161.715 80.9491V116.722H148.779V84.7806C148.779 76.0511 144.392 71.0489 136.684 71.0489C129.196 71.0489 123.954 76.2629 123.954 84.996V116.725H111V60.506Z" fill="#090906"/>
<path d="M221.549 88.9315V88.7232C221.642 86.3865 221.262 84.055 220.434 81.868C219.605 79.6809 218.344 77.6831 216.726 75.9937C215.108 74.3043 213.166 72.9579 211.016 72.0349C208.866 71.1119 206.552 70.6312 204.212 70.6214C201.897 70.6033 199.603 71.0602 197.472 71.9639C195.341 72.8677 193.418 74.1989 191.823 75.8753C190.228 77.5517 188.994 79.5376 188.198 81.7099C187.401 83.8821 187.06 86.1946 187.194 88.5042V88.7196C187.108 91.0471 187.489 93.3682 188.315 95.5463C189.14 97.7243 190.393 99.7153 192.001 101.402C193.608 103.088 195.537 104.436 197.673 105.367C199.81 106.297 202.111 106.79 204.442 106.818C206.761 106.835 209.059 106.378 211.194 105.475C213.33 104.572 215.259 103.242 216.861 101.567C218.463 99.8917 219.706 97.9065 220.512 95.7336C221.318 93.5606 221.671 91.2458 221.549 88.9315ZM174.248 88.9315V88.7232C174.445 80.8877 177.69 73.4374 183.296 67.955C188.901 62.4727 196.424 59.3901 204.267 59.362C212.11 59.334 219.655 62.3627 225.299 67.8048C230.944 73.247 234.243 80.6738 234.495 88.5078V88.7232C234.474 92.6457 233.669 96.5244 232.128 100.132C230.586 103.739 228.339 107.002 225.518 109.729C222.696 112.457 219.359 114.593 215.7 116.013C212.041 117.434 208.135 118.109 204.212 118C200.321 118.108 196.448 117.436 192.821 116.025C189.194 114.613 185.886 112.49 183.093 109.781C180.3 107.072 178.078 103.832 176.557 100.251C175.037 96.6701 174.249 92.8213 174.241 88.9315H174.248Z" fill="#090906"/>
<path d="M248.408 60.5059H261.344V116.722H248.408V60.5059ZM247.873 39.6392H261.786V51.8806H247.873V39.6392Z" fill="#090906"/>
<path d="M279.015 39H291.951V116.722H279.015V39Z" fill="#090906"/>
<path d="M309.622 60.5059H322.558V116.722H309.622V60.5059ZM309.087 39.6392H323V51.8806H309.087V39.6392Z" fill="#090906"/>
</g>
<defs>
<clipPath id="clip0_10_38">
<rect width="212" height="79" fill="white" transform="translate(111 39)"/>
</clipPath>
</defs>
</svg>
