<svg width="32" height="32" viewBox="0 0 32 32" fill="none" xmlns="http://www.w3.org/2000/svg">
<g clip-path="url(#clip0_2_2)">
<mask id="mask0_2_2" style="mask-type:luminance" maskUnits="userSpaceOnUse" x="0" y="0" width="32" height="32">
<path d="M32 0H0V32H32V0Z" fill="white"/>
</mask>
<g mask="url(#mask0_2_2)">
<path d="M24 0H8C3.58172 0 0 3.58172 0 8V24C0 28.4183 3.58172 32 8 32H24C28.4183 32 32 28.4183 32 24V8C32 3.58172 28.4183 0 24 0Z" fill="black"/>
</g>
<path d="M26.54 10.405C26.2865 9.45785 25.5421 8.71353 24.5949 8.45999C22.88 8 16 8 16 8C16 8 9.12001 8 7.405 8.45999C6.45785 8.71353 5.71353 9.45785 5.45999 10.405C5 12.12 5 15.7004 5 15.7004C5 15.7004 5 19.2807 5.45999 20.9957C5.71353 21.9429 6.45785 22.6872 7.405 22.9407C9.12001 23.4007 16 23.4007 16 23.4007C16 23.4007 22.88 23.4007 24.5949 22.9407C25.5421 22.6872 26.2865 21.9429 26.54 20.9957C27 19.2807 27 15.7004 27 15.7004C27 15.7004 26.9982 12.12 26.54 10.405Z" fill="white"/>
<path d="M13.7979 19.0003L19.5134 15.7007L13.7979 12.401V19.0003Z" fill="black"/>
</g>
<defs>
<clipPath id="clip0_2_2">
<rect width="32" height="32" fill="white"/>
</clipPath>
</defs>
</svg>
